<svg xmlns="http://www.w3.org/2000/svg" viewBox="0 0 128 128" width="40" height="40">
  <rect width="128" height="128" rx="8" fill="#000000"/>
  <path fill="#F7DF1E" d="M24 24h80v80H24z"/>
  <path fill="#000000" d="M86.36 89.13c.43 2.79 2.61 4.83 5.58 4.83 2.62 0 4.29-1.31 4.29-3.12 0-2.17-1.72-2.94-4.62-4.2l-1.58-.68c-4.56-1.94-7.59-4.37-7.59-9.52 0-4.74 3.62-8.34 9.27-8.34 4.02 0 6.91 1.4 9 4.97l-4.93 3.17c-1.09-1.94-2.27-2.7-4.07-2.7-1.85 0-3.02 1.17-3.02 2.7 0 1.89 1.17 2.66 3.88 3.83l1.58.68c5.38 2.31 8.4 4.65 8.4 9.93 0 5.69-4.47 8.81-10.46 8.81-5.88 0-9.68-2.81-11.52-6.49l5.17-2.89zm-24.36.52c.86 1.53 1.64 2.82 3.52 2.82 1.79 0 2.92-.7 2.92-3.43v-18.55h6.83v18.65c0 7.07-4.15 10.29-10.21 10.29-5.47 0-8.64-3.26-10.26-7.17l5.2-2.61z"/>
</svg>
