<svg xmlns="http://www.w3.org/2000/svg" viewBox="0 0 256 244" width="48" height="48">
  <path fill="#764ABC" d="M177.381 169.496c9.101-.907 16.099-8.436 16.099-17.745 0-9.308-7.534-16.842-16.842-16.842h-.906c-10.215 0-18.277 8.436-18.277 18.277 0 4.539 1.816 8.436 4.539 11.16-11.161 22.321-28.652 37.207-55.747 50.684-18.278 9.101-37.208 12.898-55.486 10.215-15.39-2.421-27.653-10.214-33.807-22.477-6.155-13.476-5.249-27.653 1.815-40.457 6.155-11.16 15.39-19.596 26.551-25.75 0-.907-.907-1.816-.907-2.724 0-36.301 26.551-68.2 66.384-82.377 23.228-8.435 46.456-8.435 68.776.908 20.744 8.436 34.221 22.612 41.755 41.542l-21.519 7.529c-5.249-14.176-15.39-23.228-30.779-29.383-16.843-6.154-34.221-5.249-52.499.907-31.899 11.16-52.499 36.301-52.499 63.396v1.815c19.596-.907 39.192 2.724 56.034 10.215 23.228 9.101 41.506 24.49 54.982 45.234zm-102.712-6.155c-9.101.907-16.843 8.435-16.843 17.745 0 9.308 7.534 16.842 16.842 16.842h.907c10.215 0 18.277-8.436 18.277-18.277 0-4.539-1.815-8.436-4.538-11.16 11.16-22.321 28.651-37.207 55.747-50.684 18.277-9.101 37.207-12.898 55.485-10.215 15.391 2.421 27.653 10.214 33.808 22.477 6.155 13.476 5.249 27.653-1.816 40.457-6.154 11.16-15.39 19.596-26.55 25.75 0 .907.907 1.816.907 2.724 0 36.301-26.551 68.2-66.384 82.377-23.228 8.435-46.456 8.435-68.776-.908-20.744-8.436-34.221-22.612-41.755-41.542l21.519-7.529c5.249 14.176 15.39 23.228 30.779 29.383 16.843 6.154 34.221 5.249 52.499-.907 31.899-11.16 52.499-36.301 52.499-63.396v-1.815c-19.596.907-39.192-2.724-56.034-10.215-23.228-9.101-41.506-24.49-54.982-45.234z"/>
</svg>
